<svg version="1.1" id="Layer_1" xmlns="http://www.w3.org/2000/svg" xmlns:xlink="http://www.w3.org/1999/xlink" x="0px" y="0px"
	 width="100%" viewBox="0 0 128 128" enable-background="new 0 0 128 128" xml:space="preserve">
<path fill="#000000" opacity="1.000000" stroke="none" 
	d="
M78.000000,129.000000 
	C53.000000,129.000000 28.499809,128.956894 4.000290,129.065445 
	C1.499326,129.076523 0.930376,128.499771 0.935936,125.999855 
	C1.026385,85.333397 1.026381,44.666611 0.935937,4.000143 
	C0.930377,1.500242 1.500242,0.930377 4.000143,0.935937 
	C44.666611,1.026383 85.333397,1.026383 125.999855,0.935936 
	C128.499771,0.930377 129.069626,1.500242 129.064072,4.000143 
	C128.973618,44.666611 128.973618,85.333397 129.064072,125.999855 
	C129.069626,128.499771 128.502228,129.087784 125.999443,129.066940 
	C110.167206,128.935028 94.333336,129.000000 78.000000,129.000000 
z"/>
<path fill="#574D49" opacity="1.000000" stroke="none" 
	d="
M51.088463,77.226646 
	C39.134785,63.437038 27.329794,49.990490 15.411216,36.240524 
	C16.420700,34.163006 17.737057,34.690449 19.094101,35.612286 
	C28.107410,41.734997 37.732246,46.958302 45.922123,54.293427 
	C50.224133,58.146442 52.056580,63.785378 56.423798,68.052002 
	C57.216053,69.687424 56.915909,71.034760 56.809837,72.747116 
	C56.692974,73.378654 56.650814,73.630898 56.546387,74.259247 
	C56.430702,74.882629 56.377289,75.129898 56.026100,76.068115 
	C55.565983,76.950539 55.403645,77.141991 54.628654,77.761673 
	C53.770176,78.234581 53.524345,78.279259 52.546169,78.184853 
	C51.621601,77.887077 51.429379,77.728386 51.088463,77.226646 
z"/>
<path fill="#852925" opacity="1.000000" stroke="none" 
	d="
M101.185486,72.528976 
	C107.377884,77.573372 113.108795,82.677795 118.988358,87.604828 
	C121.783142,89.946854 122.562523,92.135422 119.213196,94.887146 
	C118.022224,96.086693 118.523872,97.439789 117.956772,98.944138 
	C115.442581,102.594360 113.041252,102.715973 110.018776,99.966133 
	C104.782593,95.202255 99.559006,90.431358 94.594437,85.384453 
	C93.346260,84.115578 91.814606,82.942535 92.335114,80.410492 
	C92.941780,74.982994 96.485069,73.329773 101.185486,72.528976 
z"/>
<path fill="#812925" opacity="1.000000" stroke="none" 
	d="
M93.195816,121.632568 
	C90.275772,124.959831 88.024956,125.104836 85.195007,121.687370 
	C80.520508,116.042404 75.612816,110.593895 71.392326,104.207344 
	C72.711571,100.720734 72.755180,96.820061 76.660011,94.695587 
	C80.120163,94.000671 81.426750,96.606750 82.970619,98.317413 
	C87.303833,103.118774 91.309029,108.212494 95.640572,113.026802 
	C97.168320,114.724823 98.798912,116.592201 97.146164,119.483459 
	C95.860161,120.526688 94.957611,121.485168 93.195816,121.632568 
z"/>
<path fill="#615755" opacity="1.000000" stroke="none" 
	d="
M40.663628,17.733952 
	C42.985222,18.279211 43.616169,20.035336 44.969406,21.426664 
	C49.021202,29.388977 55.661949,34.829876 61.221828,41.138897 
	C64.169800,44.484081 67.304855,47.693748 70.459312,50.864658 
	C71.764404,52.176556 73.201576,53.433495 71.635239,55.832619 
	C69.639526,57.035290 68.093788,58.373676 65.545563,57.944794 
	C60.763073,55.176456 56.412479,52.457718 52.956062,48.053535 
	C52.135017,45.256180 52.012100,42.625729 50.221912,40.211014 
	C49.268192,38.883347 48.789909,37.571312 47.096748,36.953579 
	C45.257858,35.257557 45.069660,32.885040 43.329712,31.139862 
	C42.940643,30.298958 42.642883,29.772663 41.705452,29.481510 
	C41.235268,29.296289 41.051792,29.211302 40.572990,29.195431 
	C39.139256,27.728752 37.679600,26.296719 38.983742,24.236671 
	C38.403027,23.405853 38.045963,22.139290 37.663132,20.396526 
	C37.905632,18.450340 38.562756,17.444927 40.663628,17.733952 
z"/>
<path fill="#655D5B" opacity="1.000000" stroke="none" 
	d="
M54.429703,70.099312 
	C49.836273,60.664703 43.151741,53.437229 34.893768,47.739479 
	C28.800129,43.535057 22.296131,39.925377 15.636301,35.993908 
	C13.614120,34.160603 11.930611,32.384098 10.132307,30.297300 
	C10.506674,28.856106 11.401272,28.542088 12.882326,28.905113 
	C14.544950,29.721163 15.658486,30.763815 17.445293,31.309364 
	C19.009230,32.007763 19.938412,33.150303 21.683060,33.444092 
	C23.007751,34.457539 23.900240,35.544121 25.741108,35.763390 
	C28.568285,38.507393 32.291203,39.220001 35.204651,41.887238 
	C38.075150,47.016430 43.621078,47.744396 47.707489,50.400455 
	C51.248631,52.702114 54.309414,54.488140 54.355267,59.139271 
	C54.372227,60.859818 55.959995,61.726406 57.053055,63.367439 
	C57.056568,66.152542 58.086143,68.949722 54.429703,70.099312 
z"/>
<path fill="#564C49" opacity="1.000000" stroke="none" 
	d="
M70.908646,55.679386 
	C65.813950,48.191212 58.481342,43.017269 53.326199,35.849380 
	C50.263905,31.591461 46.000229,28.076700 45.167583,22.069023 
	C55.323330,32.009823 65.495399,42.338623 75.907303,52.919724 
	C76.526550,53.880936 76.816696,54.622982 77.032654,55.824871 
	C77.029518,56.512554 76.972237,56.788002 76.697563,57.429981 
	C76.274727,57.995285 76.069283,58.194054 75.054535,58.636082 
	C73.969803,58.820316 73.694382,58.761295 73.019493,58.578133 
	C72.362770,58.352352 72.105522,58.250713 71.532509,57.883896 
	C70.916351,57.145061 70.771034,56.627968 70.908646,55.679386 
z"/>
<path fill="#A5393A" opacity="1.000000" stroke="none" 
	d="
M77.183655,95.886337 
	C75.036598,98.520126 75.703827,102.573784 71.639755,103.793823 
	C71.011635,103.687943 70.697479,103.495010 70.232574,103.067436 
	C68.758354,101.488785 68.996284,98.952354 66.512428,98.087791 
	C66.350533,97.804703 66.224892,97.776077 66.211304,97.713097 
	C64.863701,96.371323 63.968269,94.712181 62.362625,93.208519 
	C61.313812,92.618614 60.813309,92.019241 60.767120,90.876648 
	C59.848778,88.062080 57.264114,85.443695 61.749237,83.095703 
	C62.500057,83.017845 62.798092,83.016243 63.532417,83.052780 
	C64.531647,83.137733 65.094879,83.180664 66.060814,83.241371 
	C69.254211,82.769302 70.606499,84.935196 72.582382,86.706726 
	C73.185349,87.350922 73.512863,87.732040 74.046684,88.426460 
	C75.214615,91.069397 78.872650,92.165817 77.183655,95.886337 
z"/>
<path fill="#B1454D" opacity="1.000000" stroke="none" 
	d="
M72.129013,57.079445 
	C72.540810,57.071613 72.537270,57.084991 72.547180,57.088898 
	C72.896423,57.230988 73.249672,57.307228 73.812119,57.141697 
	C74.009384,56.953110 73.982178,56.972370 73.970428,56.984184 
	C74.210213,56.785591 74.449173,56.561749 74.848480,56.149994 
	C75.021416,55.975521 74.976784,55.976757 74.977455,55.999073 
	C75.558640,55.287674 75.983269,54.430939 77.025055,53.645512 
	C78.902863,52.983940 79.980011,54.141834 81.397858,54.968952 
	C82.195419,55.769093 82.848038,56.245491 83.655899,56.986515 
	C84.877594,57.847042 85.163589,59.326782 86.688416,59.861992 
	C86.881035,60.102291 86.936844,60.066334 86.922745,60.096382 
	C87.550850,60.527531 88.054688,61.082878 88.745270,61.843147 
	C88.916138,62.065777 88.974266,62.024990 88.953491,62.053772 
	C89.487679,62.550640 90.046150,63.014977 90.688286,63.887924 
	C90.876083,64.448326 90.898849,64.687309 90.809097,65.265915 
	C90.538933,65.781982 90.381264,65.958435 89.913345,66.302231 
	C87.128571,68.127457 84.459869,68.309586 81.311996,67.523895 
	C80.489197,67.554703 80.017754,67.587318 79.188461,67.683319 
	C77.092125,68.127121 76.159668,66.830505 74.774094,65.679253 
	C74.334343,65.263062 74.159935,65.095093 73.726151,64.671303 
	C73.295174,64.241982 73.123589,64.068489 72.695572,63.627464 
	C72.269211,63.175404 72.099289,62.990871 71.680008,62.518753 
	C70.799812,61.400738 70.053131,60.634701 69.964691,59.114754 
	C70.120384,58.456161 70.237511,58.207062 70.652039,57.671829 
	C71.205368,57.286228 71.461288,57.186749 72.129013,57.079445 
z"/>
<path fill="#B0444B" opacity="1.000000" stroke="none" 
	d="
M65.713013,84.266846 
	C62.446255,84.981544 60.895145,86.657082 60.916870,90.152161 
	C59.454315,89.152016 58.001339,87.703514 56.383286,85.963585 
	C56.026882,85.609970 55.835564,85.547791 55.540760,85.202194 
	C55.165558,84.378548 54.860176,83.860008 54.284561,83.157227 
	C53.569813,82.366241 53.030540,81.820572 52.335152,81.032578 
	C51.216442,79.919655 50.945435,78.898445 51.777576,77.361206 
	C52.049862,77.026115 52.013359,76.983162 52.002754,77.009277 
	C52.210594,76.790962 52.437984,76.555168 52.856087,76.162643 
	C53.037853,75.997284 52.982471,75.988876 52.990997,76.015549 
	C53.209080,75.793373 53.432251,75.557396 53.852676,75.174088 
	C54.036316,75.013885 53.995586,74.993477 54.003532,75.014816 
	C54.216751,74.785820 54.437855,74.550331 54.861053,74.174591 
	C55.047321,74.019478 55.227509,73.759254 55.237518,73.601311 
	C55.927116,72.976662 56.483444,72.322975 57.723724,72.051575 
	C59.306545,72.038918 60.191196,72.642097 61.263229,73.708626 
	C63.199413,76.320175 65.386719,78.209351 67.140556,80.950577 
	C67.316895,81.578812 67.335312,81.843857 67.243835,82.493492 
	C66.847618,83.338943 66.474976,83.714104 65.713013,84.266846 
z"/>
<path fill="#7C7A7A" opacity="1.000000" stroke="none" 
	d="
M21.274082,35.194298 
	C19.788158,34.590355 18.739346,33.945778 17.970387,32.465656 
	C17.736168,31.935217 17.643780,31.686808 17.798435,31.126923 
	C21.639830,30.777184 24.054356,33.398842 26.930462,34.897995 
	C33.240295,38.186958 39.380894,41.800587 45.916378,45.320358 
	C47.071617,45.283218 47.689850,45.776886 48.582088,46.463539 
	C48.858215,47.043407 48.907707,47.302555 48.867664,47.951897 
	C48.614632,48.551868 48.451134,48.761642 47.944275,49.185265 
	C42.719883,48.721386 39.138321,45.245655 34.459801,43.183071 
	C31.312012,41.000946 27.822018,40.180000 25.142483,37.392693 
	C24.070042,36.003834 22.615427,36.056072 21.274082,35.194298 
z"/>
<path fill="#352A24" opacity="1.000000" stroke="none" 
	d="
M93.152206,121.894211 
	C93.395470,120.961777 93.973091,120.237411 94.809738,119.409325 
	C97.759727,119.386932 100.455460,119.273056 103.143188,119.275864 
	C108.900055,119.281868 113.802170,117.246956 116.806900,111.877708 
	C117.580193,110.495888 118.061607,108.696907 120.520355,108.630676 
	C121.393471,108.772789 121.828819,109.008423 122.448135,109.650124 
	C119.826210,122.608910 106.393486,128.203094 93.152206,121.894211 
z"/>
<path fill="#962F2C" opacity="1.000000" stroke="none" 
	d="
M89.765900,64.994247 
	C89.933846,64.692474 89.828529,64.475594 89.795227,64.359741 
	C90.091415,63.681461 90.577301,63.455833 91.593796,63.795837 
	C93.529015,65.531914 95.090012,67.039154 96.810310,68.832382 
	C98.325523,70.173088 99.377159,71.567848 101.122581,72.546417 
	C101.444290,72.546036 101.514137,72.489342 101.550049,72.515549 
	C99.784958,75.468163 95.408272,75.857262 93.943741,79.830635 
	C91.892731,79.792229 90.335167,80.382904 88.668182,79.168793 
	C87.565147,78.249771 86.844200,77.505600 86.414619,76.126114 
	C88.365456,72.914726 88.513000,69.619171 88.911926,66.071877 
	C89.294037,65.641960 89.445999,65.468987 89.765900,64.994247 
z"/>
<path fill="#858383" opacity="1.000000" stroke="none" 
	d="
M40.386360,29.608540 
	C40.565784,29.055981 40.853905,28.847414 41.617218,28.396273 
	C42.874523,28.252995 43.259605,28.813601 43.794540,29.719131 
	C45.735310,31.484835 47.080948,33.220795 47.610088,35.857964 
	C48.307945,37.303143 49.638275,37.685570 50.503742,39.075054 
	C51.629719,41.560810 53.166882,43.486076 53.074162,46.397423 
	C52.338840,47.907448 51.377045,48.373070 49.716499,48.090424 
	C48.635193,47.369873 48.207062,46.626095 47.828674,45.430176 
	C47.776012,44.799099 47.706501,44.596294 47.467079,44.120453 
	C47.297169,43.847424 47.415520,43.363476 47.188026,43.261986 
	C44.805378,38.757843 42.650219,34.355186 40.386360,29.608540 
z"/>
<path fill="#858383" opacity="1.000000" stroke="none" 
	d="
M36.197472,19.119663 
	C32.100090,15.317777 30.136126,10.443721 28.048950,5.065758 
	C31.395235,5.864998 31.624453,9.096990 34.003479,10.503660 
	C35.821941,13.251537 39.151424,15.196551 36.197472,19.119663 
z"/>
<path fill="#767373" opacity="1.000000" stroke="none" 
	d="
M14.220156,29.745487 
	C12.936705,30.000364 11.875202,29.980717 10.415606,29.974041 
	C8.026875,27.849146 6.036237,25.711281 3.263131,22.733076 
	C8.172188,23.695293 11.059653,25.945925 13.995436,28.541752 
	C14.175971,29.082727 14.309037,29.276846 14.220156,29.745487 
z"/>
<path fill="#615957" opacity="1.000000" stroke="none" 
	d="
M35.817535,19.279345 
	C36.568897,16.459856 35.356678,14.018782 34.154785,11.188539 
	C37.345554,12.025864 38.649174,15.087086 40.886272,17.701916 
	C40.451622,18.550430 39.800049,19.144457 38.985619,20.031830 
	C37.750137,20.798975 37.074062,20.123667 36.083466,19.309353 
	C35.781296,19.134571 35.867062,19.235426 35.817535,19.279345 
z"/>
<path fill="#3F342F" opacity="1.000000" stroke="none" 
	d="
M122.780670,109.536865 
	C122.248238,109.952477 121.800438,109.967239 121.016129,109.988480 
	C117.943901,107.329269 116.231949,104.362915 118.186378,100.095398 
	C118.796532,99.694527 119.086205,99.612206 119.796257,99.695236 
	C122.309921,102.606773 123.435738,105.629211 122.780670,109.536865 
z"/>
<path fill="#342722" opacity="1.000000" stroke="none" 
	d="
M120.152435,99.507614 
	C119.918938,99.899185 119.621239,99.937759 118.876854,100.033043 
	C116.863060,100.583519 116.442307,99.805710 116.728165,98.031174 
	C117.378448,96.840080 117.873932,96.033623 118.630463,95.114426 
	C119.290428,96.386009 119.689339,97.770317 120.152435,99.507614 
z"/>
<path fill="#858383" opacity="1.000000" stroke="none" 
	d="
M35.685677,19.541937 
	C36.609379,19.404650 37.437466,19.674730 38.544159,20.134995 
	C38.986862,21.400705 39.150955,22.476236 39.337536,23.965790 
	C35.941235,24.742756 36.861210,21.413803 35.685677,19.541937 
z"/>
<path fill="#812925" opacity="1.000000" stroke="none" 
	d="
M66.387741,98.130661 
	C68.734818,98.257057 69.900055,99.763000 70.081055,102.476517 
	C67.938187,102.146751 67.867790,99.728256 66.387741,98.130661 
z"/>
<path fill="#812925" opacity="1.000000" stroke="none" 
	d="
M62.162415,93.273636 
	C64.271088,93.503601 65.415749,95.018227 66.134827,97.327332 
	C64.188316,96.969864 62.773602,95.698326 62.162415,93.273636 
z"/>
<path fill="#852925" opacity="1.000000" stroke="none" 
	d="
M101.301292,72.255013 
	C99.282875,72.744896 98.010071,71.591858 97.079880,69.434090 
	C99.094017,68.995049 100.135811,70.465302 101.301292,72.255013 
z"/>
<path fill="#762B28" opacity="1.000000" stroke="none" 
	d="
M81.555237,54.965042 
	C80.271706,54.894821 79.000595,54.496944 77.389801,54.110382 
	C76.880127,53.935062 76.710129,53.748432 76.757324,53.251606 
	C79.190666,51.651310 80.439522,52.980900 81.555237,54.965042 
z"/>
<path fill="#747070" opacity="1.000000" stroke="none" 
	d="
M14.206192,30.268501 
	C14.004924,29.831415 14.011640,29.642820 14.030630,29.171417 
	C15.267218,29.339333 16.491529,29.790054 17.880661,30.528112 
	C18.010704,31.043097 17.975925,31.270746 17.884851,31.841011 
	C16.536737,31.942945 15.318927,31.550650 14.206192,30.268501 
z"/>
<path fill="#6E2825" opacity="1.000000" stroke="none" 
	d="
M51.772766,76.987183 
	C52.085869,78.028748 52.121880,79.031387 52.168461,80.412140 
	C50.378307,80.260155 49.836891,79.123825 50.740444,77.135712 
	C51.125072,76.905144 51.310368,76.926689 51.772766,76.987183 
z"/>
<path fill="#762B28" opacity="1.000000" stroke="none" 
	d="
M86.768723,59.810654 
	C85.445183,59.971146 84.394424,59.321018 83.862976,57.576187 
	C85.188805,57.468594 85.862930,58.568680 86.768723,59.810654 
z"/>
<path fill="#762B28" opacity="1.000000" stroke="none" 
	d="
M91.859070,63.714901 
	C91.478668,64.072670 90.989319,64.120659 90.130951,64.206268 
	C89.503960,63.719658 89.246010,63.195431 88.960381,62.376884 
	C90.120850,61.992977 91.069145,62.414330 91.859070,63.714901 
z"/>
<path fill="#762B28" opacity="1.000000" stroke="none" 
	d="
M88.896301,61.724411 
	C88.309120,61.607182 87.702110,61.148586 87.001877,60.408211 
	C87.820717,60.144215 88.808464,60.043488 88.896301,61.724411 
z"/>
<path fill="#6D2825" opacity="1.000000" stroke="none" 
	d="
M76.767563,52.998672 
	C76.987823,53.138008 77.001129,53.334606 77.032280,53.826454 
	C76.529312,54.668873 76.008507,55.216049 75.232910,55.892303 
	C75.266220,55.252029 75.554314,54.482670 75.994766,53.442669 
	C76.147125,53.172024 76.560600,53.055935 76.767563,52.998672 
z"/>
<path fill="#6E2825" opacity="1.000000" stroke="none" 
	d="
M54.116798,83.211082 
	C54.697952,83.443283 55.286816,83.974663 56.006035,84.784180 
	C55.931866,85.191559 55.727337,85.320801 55.230339,85.235184 
	C54.666748,84.516960 54.395626,84.013603 54.116798,83.211082 
z"/>
<path fill="#060606" opacity="1.000000" stroke="none" 
	d="
M47.442619,45.081924 
	C48.236725,45.466366 48.627922,45.930828 49.046257,46.704720 
	C48.902863,47.149513 48.732327,47.284882 48.275703,47.262695 
	C47.535007,46.685303 47.080387,46.265465 46.433968,45.602348 
	C46.508011,45.293362 46.773861,45.227657 47.442619,45.081924 
z"/>
<path fill="#060606" opacity="1.000000" stroke="none" 
	d="
M47.001106,43.282455 
	C47.197578,43.199039 47.356422,43.331348 47.367119,43.702423 
	C47.192638,43.710922 47.107475,43.563255 47.001106,43.282455 
z"/>
<path fill="#812925" opacity="1.000000" stroke="none" 
	d="
M55.075901,85.250824 
	C55.137154,85.026054 55.336437,85.031792 55.836056,85.049927 
	C56.136395,85.062317 56.242935,85.358826 56.230568,85.515488 
	C55.883446,85.608551 55.548691,85.544945 55.075901,85.250824 
z"/>
<path fill="#000000" opacity="1.000000" stroke="none" 
	d="
M116.606041,97.831360 
	C117.259727,98.330719 117.636475,99.014885 118.221695,99.894402 
	C119.573219,103.031303 120.605507,106.000015 120.672104,109.601089 
	C115.388168,121.109406 105.177872,125.106514 95.277618,119.581573 
	C96.445923,117.215515 94.849663,116.164780 93.652504,114.807915 
	C88.254593,108.689812 82.946480,102.492477 77.272820,96.244789 
	C75.289307,94.325882 73.638992,92.485878 71.843445,90.337486 
	C71.626892,89.847130 71.555573,89.665161 71.201645,89.405273 
	C69.554092,87.866135 68.189163,86.404922 66.515091,84.817635 
	C66.000160,84.924622 65.794380,85.157677 65.270096,85.050064 
	C64.951599,84.709404 65.270142,84.848381 65.339943,84.689117 
	C65.577446,84.275673 65.648544,83.996864 65.615334,83.474472 
	C65.478111,82.970314 65.376030,82.675598 65.081833,82.289917 
	C63.213886,80.417404 61.565483,78.626358 59.763222,76.536942 
	C59.504066,75.401978 58.591900,75.176208 58.008629,74.435516 
	C57.126034,74.102898 56.521271,73.825890 55.582016,73.496124 
	C54.878304,72.491272 54.509083,71.539169 54.055466,70.286896 
	C55.047188,68.040375 54.893799,65.888573 54.974365,63.374908 
	C54.783558,62.048363 54.600330,61.105297 54.553032,60.199982 
	C54.332333,55.975636 55.978539,54.251976 60.104065,54.948608 
	C61.421837,55.171124 62.862766,54.978699 64.547096,55.751797 
	C66.734673,55.677464 68.501808,55.445503 70.652069,55.252625 
	C71.449417,55.708698 71.863663,56.125694 72.409363,56.807152 
	C72.500916,57.263264 72.461014,57.454914 72.284958,57.906723 
	C71.962013,58.278706 71.775246,58.390530 71.844788,58.704662 
	C72.624947,59.460079 73.148788,60.013195 73.901093,60.740250 
	C74.222458,61.226410 74.402260,61.476036 74.851814,61.809410 
	C75.034668,61.955750 75.002586,61.996758 75.023071,61.980804 
	C75.228630,62.218002 75.434761,62.452648 75.866051,62.784203 
	C76.929436,63.774380 77.788719,64.649139 78.901436,65.696869 
	C79.635315,66.804703 80.497299,66.966858 81.768501,67.016830 
	C84.821739,68.833618 87.618309,70.553940 88.194443,74.538292 
	C88.657730,75.508934 89.062531,76.135574 89.737068,76.875076 
	C91.140121,77.908943 92.771156,78.142448 93.776070,79.776596 
	C94.002090,80.000175 94.045959,80.036148 94.060898,80.012230 
	C94.079666,81.026375 94.416245,81.901276 95.199028,82.629997 
	C100.808105,87.851730 106.492973,92.997261 111.953712,98.370323 
	C113.863136,100.249107 114.994041,99.639587 116.606041,97.831360 
z"/>
<path fill="#6E2825" opacity="1.000000" stroke="none" 
	d="
M52.837185,76.142441 
	C52.842152,76.269386 52.646450,76.541489 52.221451,76.924492 
	C52.164913,76.749916 52.379700,76.500656 52.837185,76.142441 
z"/>
<path fill="#6E2825" opacity="1.000000" stroke="none" 
	d="
M53.830223,75.149399 
	C53.848194,75.290230 53.660076,75.566582 53.235741,75.942581 
	C53.156738,75.747734 53.364941,75.495293 53.830223,75.149399 
z"/>
<path fill="#6E2825" opacity="1.000000" stroke="none" 
	d="
M54.848877,74.161331 
	C54.863159,74.299561 54.678993,74.579643 54.253151,74.947937 
	C54.184570,74.757065 54.397556,74.512733 54.848877,74.161331 
z"/>
<path fill="#747070" opacity="1.000000" stroke="none" 
	d="
M64.783813,55.645306 
	C63.352406,56.227402 61.717400,56.888638 60.126038,56.796448 
	C56.007984,56.557884 55.265682,59.064590 55.045563,62.627110 
	C51.725639,54.803425 45.281929,50.083054 37.651592,46.521687 
	C36.397110,45.936172 35.528187,44.524582 34.310783,43.208279 
	C39.152054,42.912918 42.722046,46.691612 47.641731,47.951286 
	C48.019497,47.985909 48.006161,47.545471 47.997894,47.325306 
	C48.170147,47.088688 48.350666,47.072239 48.802292,47.034966 
	C49.802322,46.748596 50.531250,46.483044 51.524101,46.094231 
	C52.526360,45.417137 53.304153,45.095387 54.570908,45.814156 
	C57.579731,49.767334 60.975304,52.693333 64.783813,55.645306 
z"/>
<path fill="#6A6564" opacity="1.000000" stroke="none" 
	d="
M54.795876,45.745960 
	C54.145210,46.043571 53.363979,46.016998 52.185387,45.980698 
	C51.896725,43.630749 50.334763,41.832535 49.656433,39.353844 
	C49.772270,38.875282 49.989967,38.757477 50.535789,38.813438 
	C53.106903,40.555550 53.481659,43.227604 54.795876,45.745960 
z"/>
<path fill="#787676" opacity="1.000000" stroke="none" 
	d="
M50.752281,38.688530 
	C50.647228,38.987389 50.430538,38.987576 49.884209,38.990429 
	C48.455578,38.584675 47.557835,38.010071 47.646545,36.419434 
	C49.075459,36.371113 50.086864,37.071770 50.752281,38.688530 
z"/>
<path fill="#696362" opacity="1.000000" stroke="none" 
	d="
M43.970089,29.756639 
	C43.492577,29.568985 42.983665,29.140245 42.283585,28.432602 
	C43.458817,27.589544 43.715065,28.530439 43.970089,29.756639 
z"/>
<path fill="#747070" opacity="1.000000" stroke="none" 
	d="
M21.240314,35.229332 
	C22.381762,35.128407 23.634714,35.482674 24.725349,36.873276 
	C23.605721,36.917984 22.360205,36.547581 21.240314,35.229332 
z"/>
<path fill="#6D2825" opacity="1.000000" stroke="none" 
	d="
M74.811401,56.108891 
	C74.872322,56.281590 74.660202,56.534863 74.171860,56.865669 
	C74.123146,56.702312 74.337387,56.451065 74.811401,56.108891 
z"/>
<path fill="#6D2825" opacity="1.000000" stroke="none" 
	d="
M73.644958,56.973991 
	C73.625992,57.101028 73.242599,57.248943 72.708145,57.244827 
	C72.798241,57.060154 73.039391,57.027512 73.644958,56.973991 
z"/>
<path fill="#812925" opacity="1.000000" stroke="none" 
	d="
M72.511543,101.495010 
	C72.496246,101.497383 72.526840,101.492645 72.511543,101.495010 
z"/>
<path fill="#812925" opacity="1.000000" stroke="none" 
	d="
M71.024292,89.469193 
	C71.253395,89.185257 71.514565,89.269638 71.700363,89.804794 
	C71.485641,89.921043 71.296089,89.781693 71.024292,89.469193 
z"/>
<path fill="#B0444B" opacity="1.000000" stroke="none" 
	d="
M65.113190,84.680588 
	C65.159325,84.649261 65.367058,84.589127 65.890366,84.610275 
	C66.205948,84.691559 65.738686,84.706581 65.738686,84.706581 
	C65.738686,84.706581 65.274788,84.651779 65.113190,84.680588 
z"/>
<path fill="#A53A3C" opacity="1.000000" stroke="none" 
	d="
M88.521790,74.740227 
	C85.981346,72.728851 83.709755,70.575401 81.267456,68.136414 
	C80.679543,67.529160 80.493340,67.105843 80.764908,66.284500 
	C81.352600,64.819130 81.895874,63.738075 83.304886,64.666489 
	C84.971474,65.764633 86.659004,65.209381 88.704010,65.039314 
	C89.212791,65.166267 89.380852,65.319435 89.771133,65.731369 
	C90.340500,66.730270 90.579628,67.549088 91.052155,68.197906 
	C94.370628,72.754478 94.386009,72.743271 88.521790,74.740227 
z"/>
<path fill="#6D2825" opacity="1.000000" stroke="none" 
	d="
M80.688034,65.933182 
	C81.030930,66.401512 81.070175,66.814949 81.103081,67.539627 
	C80.167740,67.828903 79.369774,67.619789 79.175186,66.194824 
	C79.564705,65.872658 79.974541,65.875481 80.688034,65.933182 
z"/>
<path fill="#6D2825" opacity="1.000000" stroke="none" 
	d="
M72.151260,58.724407 
	C71.888351,58.768711 71.675591,58.630459 71.462830,58.492203 
	C71.555550,58.393070 71.648270,58.293930 71.944885,58.180836 
	C72.148788,58.166878 72.201416,58.541851 72.151260,58.724407 
z"/>
<path fill="#6D2825" opacity="1.000000" stroke="none" 
	d="
M74.944107,61.734940 
	C74.760925,61.776073 74.487175,61.596397 74.171494,61.165455 
	C74.439819,61.030968 74.681152,61.230946 74.944107,61.734940 
z"/>
<path fill="#6D2825" opacity="1.000000" stroke="none" 
	d="
M75.955017,62.688892 
	C75.779602,62.749550 75.489037,62.599487 75.121017,62.207138 
	C75.365768,62.047901 75.631203,62.219006 75.955017,62.688892 
z"/>
<path fill="#852925" opacity="1.000000" stroke="none" 
	d="
M89.978424,65.665726 
	C89.759651,65.795967 89.542091,65.585144 89.192703,65.185387 
	C89.044724,65.013100 89.492035,64.862137 89.712936,64.777306 
	C89.943733,64.908752 89.953621,65.125031 89.978424,65.665726 
z"/>
<path fill="#6E2825" opacity="1.000000" stroke="none" 
	d="
M57.803509,74.654785 
	C58.677864,74.329300 59.252518,74.864914 59.647842,75.930405 
	C59.031651,75.802277 58.453934,75.365974 57.803509,74.654785 
z"/>
<path fill="#6E2825" opacity="1.000000" stroke="none" 
	d="
M65.015717,82.493652 
	C65.382660,82.110405 65.728386,82.261200 65.688766,83.050491 
	C65.461464,83.096634 65.315300,82.937744 65.015717,82.493652 
z"/>
<path fill="#6D2825" opacity="1.000000" stroke="none" 
	d="
M93.914177,79.668701 
	C92.190628,80.080460 91.218842,78.862457 90.143539,77.290512 
	C91.754822,76.999008 93.185669,77.525711 93.914177,79.668701 
z"/>
<path fill="#7C7A7A" opacity="1.000000" stroke="none" 
	d="
M48.010025,47.993752 
	C48.019497,47.985909 48.021870,48.066147 48.003334,48.043503 
	C47.984795,48.020855 48.000553,48.001595 48.010025,47.993752 
z"/>
</svg>